<?xml version="1.0" encoding="UTF-8" standalone="no"?>
<svg width="1083px" height="264px" viewBox="0 0 1083 264" version="1.1" xmlns="http://www.w3.org/2000/svg" xmlns:xlink="http://www.w3.org/1999/xlink" xmlns:sketch="http://www.bohemiancoding.com/sketch/ns">
    <!-- Generator: Sketch 3.3.3 (12081) - http://www.bohemiancoding.com/sketch -->
    <title>levvel_logo copy</title>
    <desc>Created with Sketch.</desc>
    <defs></defs>
    <g id="Page-1" stroke="none" stroke-width="1" fill="none" fill-rule="evenodd" sketch:type="MSPage">
        <g id="levvel_logo-copy" sketch:type="MSLayerGroup">
            <path d="M141.238631,263.24864 L0,263.24864 L0,0.77856 L45.7490234,0.77856 L45.7490234,219.375758 L141.238631,219.37576 L141.238631,263.24864 Z" id="Fill-1" fill="#A9D5C9" sketch:type="MSShapeGroup"></path>
            <path d="M1082.23863,263.24864 L941,263.24864 L941,0.77856 L986.749023,0.77856 L986.749023,219.375758 L1082.23863,219.37576 L1082.23863,263.24864 Z" id="Fill-1-Copy" fill="#E16245" sketch:type="MSShapeGroup"></path>
            <path d="M227.342207,44.64596 L227.342207,110.26348 L336.657076,110.26348 L336.657076,153.75824 L227.342207,153.75824 L227.342207,219.37576 L358.814308,219.37576 L358.814308,263.24864 L183.395566,263.24864 L183.395566,0.77856 L358.814308,0.77856 L358.814308,44.64596 L227.342207,44.64596" id="Fill-2" fill="#A9D5C9" sketch:type="MSShapeGroup"></path>
            <path d="M767.367101,44.64596 L767.367101,110.26348 L876.67648,110.26348 L876.67648,153.75824 L767.367101,153.75824 L767.367101,219.37576 L898.839202,219.37576 L898.839202,263.24864 L723.41497,263.24864 L723.41497,0.77856 L898.839202,0.77856 L898.839202,44.64596 L767.367101,44.64596" id="Fill-3" fill="#E26244" sketch:type="MSShapeGroup"></path>
            <path d="M486.553278,0.77856 L439.224859,0.77856 L504.439369,134.93444 L528.638843,84.38144 L486.553278,0.77856" id="Fill-5" fill="#E26244" sketch:type="MSShapeGroup"></path>
            <path d="M698.94649,0.77856 L651.612581,0.77856 L569.725247,161.85723 L569.681328,161.777092 L518.460571,263.24864 L570.098561,263.24864 L698.94649,0.77856" id="Fill-6" fill="#E26244" sketch:type="MSShapeGroup"></path>
            <path d="M633.479444,0.77856 L504.637005,263.24864 L373.757813,0.77856 L421.086232,0.77856 L504.258202,161.85723 L586.151025,0.77856 L633.479444,0.77856" id="Fill-7" fill="#A9D5C9" sketch:type="MSShapeGroup"></path>
        </g>
    </g>
</svg>